<svg id="Avatar" xmlns="http://www.w3.org/2000/svg" xmlns:xlink="http://www.w3.org/1999/xlink" width="58" height="60" viewBox="0 0 58 60">
  <defs>
    <clipPath id="clip-path">
      <rect id="Rectangle_3" data-name="Rectangle 3" width="24" height="24" fill="#bc8a00" stroke="#707070" stroke-width="1"/>
    </clipPath>
  </defs>
  <rect id="Avatar_Frame_Background_" data-name="Avatar [Frame Background]" width="58" height="58" rx="29" transform="translate(0 2)" fill="#bc8a00"/>
  <g id="Avatar_Frame_Background_2" data-name="Avatar [Frame Background]" fill="#fff" stroke="#bc8a00" stroke-width="1">
    <rect width="58" height="58" rx="29" stroke="none"/>
    <rect x="0.5" y="0.5" width="57" height="57" rx="28.5" fill="none"/>
  </g>
  <g id="Mask_Group_9" data-name="Mask Group 9" transform="translate(17 17)" clip-path="url(#clip-path)">
    <path id="call_24dp_E8EAED_FILL0_wght300_GRAD0_opsz24" d="M6.437-4.941A19.032,19.032,0,0,0,14.456-6.8a25.53,25.53,0,0,0,7.4-5.236,25.709,25.709,0,0,0,5.229-7.4,18.985,18.985,0,0,0,1.856-8.011,1.457,1.457,0,0,0-.424-1.069,1.43,1.43,0,0,0-1.059-.427h-4.6a1.41,1.41,0,0,0-.943.349,1.534,1.534,0,0,0-.52.862l-.809,4.154a2.377,2.377,0,0,0,.035.994,1.479,1.479,0,0,0,.429.7l3.26,3.174a19.575,19.575,0,0,1-1.8,2.727,26.86,26.86,0,0,1-2.19,2.455,24.322,24.322,0,0,1-2.471,2.159,24.833,24.833,0,0,1-2.826,1.854l-3.168-3.2a1.8,1.8,0,0,0-.8-.484,2.307,2.307,0,0,0-.979-.068l-3.92.8a1.658,1.658,0,0,0-.873.546A1.392,1.392,0,0,0,4.941-11v4.577a1.43,1.43,0,0,0,.427,1.059A1.457,1.457,0,0,0,6.437-4.941ZM25.309-20.715l-2.52-2.411a.252.252,0,0,1-.088-.149.33.33,0,0,1,.007-.176l.614-3.155a.291.291,0,0,1,.095-.163.273.273,0,0,1,.176-.054h3.019a.184.184,0,0,1,.136.054.185.185,0,0,1,.054.136,18.024,18.024,0,0,1-.474,2.94A17.956,17.956,0,0,1,25.309-20.715ZM13.026-8.514a14.522,14.522,0,0,1-2.928,1A16.636,16.636,0,0,1,7.249-7.1a.184.184,0,0,1-.136-.054.184.184,0,0,1-.054-.136v-2.97a.273.273,0,0,1,.054-.176.291.291,0,0,1,.163-.095l2.965-.6a.223.223,0,0,1,.143-.007.35.35,0,0,1,.129.088l2.514,2.541ZM25.309-20.715ZM13.026-8.514Z" transform="translate(-4.941 28.941)" fill="#bc8a00"/>
  </g>
</svg>
