<svg id="Avatar" xmlns="http://www.w3.org/2000/svg" xmlns:xlink="http://www.w3.org/1999/xlink" width="58" height="60" viewBox="0 0 58 60">
  <defs>
    <clipPath id="clip-path">
      <rect id="Rectangle_3" data-name="Rectangle 3" width="24" height="24" fill="#bc8a00" stroke="#707070" stroke-width="1"/>
    </clipPath>
  </defs>
  <rect id="Avatar_Frame_Background_" data-name="Avatar [Frame Background]" width="58" height="58" rx="29" transform="translate(0 2)" fill="#bc8a00"/>
  <g id="Avatar_Frame_Background_2" data-name="Avatar [Frame Background]" fill="#fff" stroke="#bc8a00" stroke-width="1">
    <rect width="58" height="58" rx="29" stroke="none"/>
    <rect x="0.5" y="0.5" width="57" height="57" rx="28.5" fill="none"/>
  </g>
  <g id="Mask_Group_3" data-name="Mask Group 3" transform="translate(17 17)" clip-path="url(#clip-path)">
    <path id="event_list_24dp_E8EAED_FILL0_wght300_GRAD0_opsz24" d="M19.968-4.421a1.822,1.822,0,0,1-1.335-.56,1.822,1.822,0,0,1-.56-1.335v-5.3a1.822,1.822,0,0,1,.56-1.335,1.822,1.822,0,0,1,1.335-.56h5.3a1.822,1.822,0,0,1,1.335.56,1.822,1.822,0,0,1,.56,1.335v5.3a1.822,1.822,0,0,1-.56,1.335,1.822,1.822,0,0,1-1.335.56Zm0-1.895h5.3v-5.3h-5.3ZM4.105-8.016a.916.916,0,0,1-.675-.273.916.916,0,0,1-.273-.675.915.915,0,0,1,.273-.675.916.916,0,0,1,.675-.272h8.988a.916.916,0,0,1,.675.273.917.917,0,0,1,.273.675.916.916,0,0,1-.273.675.917.917,0,0,1-.675.272H4.105ZM19.968-16.81a1.822,1.822,0,0,1-1.335-.56,1.822,1.822,0,0,1-.56-1.335V-24a1.822,1.822,0,0,1,.56-1.335,1.822,1.822,0,0,1,1.335-.56h5.3a1.822,1.822,0,0,1,1.335.56A1.822,1.822,0,0,1,27.158-24v5.3a1.822,1.822,0,0,1-.56,1.335,1.822,1.822,0,0,1-1.335.56Zm0-1.895h5.3V-24h-5.3ZM4.105-20.4a.916.916,0,0,1-.675-.273.917.917,0,0,1-.273-.675.916.916,0,0,1,.273-.675.917.917,0,0,1,.675-.272h8.988a.916.916,0,0,1,.675.273.916.916,0,0,1,.273.675.915.915,0,0,1-.273.675.916.916,0,0,1-.675.272ZM22.615-8.964ZM22.615-21.352Z" transform="translate(-3.158 27.158)" fill="#bc8a00"/>
  </g>
</svg>
