<svg id="Avatar" xmlns="http://www.w3.org/2000/svg" xmlns:xlink="http://www.w3.org/1999/xlink" width="58" height="60" viewBox="0 0 58 60">
  <defs>
    <clipPath id="clip-path">
      <rect id="Rectangle_3" data-name="Rectangle 3" width="24" height="24" transform="translate(17 17)" fill="#bc8a00" stroke="#707070" stroke-width="1"/>
    </clipPath>
  </defs>
  <rect id="Avatar_Frame_Background_" data-name="Avatar [Frame Background]" width="58" height="58" rx="29" transform="translate(0 2)" fill="#bc8a00"/>
  <g id="Avatar_Frame_Background_2" data-name="Avatar [Frame Background]" fill="#fff" stroke="#bc8a00" stroke-width="1">
    <rect width="58" height="58" rx="29" stroke="none"/>
    <rect x="0.5" y="0.5" width="57" height="57" rx="28.5" fill="none"/>
  </g>
  <g id="Mask_Group_7" data-name="Mask Group 7" clip-path="url(#clip-path)">
    <g id="whatsapp" transform="translate(17 17)">
      <rect id="whatsapp_Frame_Background_" data-name="whatsapp [Frame Background]" width="24" height="24" fill="none"/>
      <g id="vuesax_linear_whatsapp" data-name="vuesax/linear/whatsapp">
        <g id="whatsapp-2" data-name="whatsapp">
          <path id="BG_1" data-name="BG 1" d="M0,0H24V24H0Z" fill="none" opacity="0.58"/>
          <path id="Vector" d="M0,20l1.3-5A10.627,10.627,0,0,1,0,10a10,10,0,1,1,4.9,8.6Z" transform="translate(2 2)" fill="none" stroke="#bc8a00" stroke-linecap="round" stroke-linejoin="round" stroke-width="1.5"/>
          <path id="Vector-2" data-name="Vector" d="M9,7.348a1.144,1.144,0,0,1-.113.49,1.856,1.856,0,0,1-.306.459,2.032,2.032,0,0,1-.739.531A2.266,2.266,0,0,1,6.963,9a3.76,3.76,0,0,1-1.469-.328,7.919,7.919,0,0,1-1.55-.891,12.952,12.952,0,0,1-1.478-1.26A12.791,12.791,0,0,1,1.208,5.049,8.019,8.019,0,0,1,.324,3.515,3.785,3.785,0,0,1,0,2.043a2.325,2.325,0,0,1,.162-.868A2.071,2.071,0,0,1,.681.423,1.321,1.321,0,0,1,1.618,0a.848.848,0,0,1,.365.081.734.734,0,0,1,.3.252L3.33,1.8a1.539,1.539,0,0,1,.18.315.71.71,0,0,1,.063.274.61.61,0,0,1-.1.319,1.531,1.531,0,0,1-.252.319l-.343.355a.241.241,0,0,0-.072.18.408.408,0,0,0,.014.1c.014.036.027.063.036.09a3.734,3.734,0,0,0,.419.576c.2.234.419.472.653.711s.478.459.717.661a3.459,3.459,0,0,0,.581.414l.081.036a.312.312,0,0,0,.113.018A.248.248,0,0,0,5.611,6.1l.343-.338a1.382,1.382,0,0,1,.324-.252.6.6,0,0,1,.32-.095.72.72,0,0,1,.275.058,1.744,1.744,0,0,1,.315.175L8.68,6.709A.683.683,0,0,1,8.928,7,.922.922,0,0,1,9,7.348Z" transform="translate(7.5 7.5)" fill="#bc8a00"/>
          <path id="Vector-3" data-name="Vector" d="M0,0H24V24H0Z" fill="none" opacity="0"/>
        </g>
      </g>
    </g>
  </g>
</svg>
