<svg id="Avatar" xmlns="http://www.w3.org/2000/svg" xmlns:xlink="http://www.w3.org/1999/xlink" width="58" height="60" viewBox="0 0 58 60">
  <defs>
    <clipPath id="clip-path">
      <rect id="Rectangle_3" data-name="Rectangle 3" width="24" height="24" fill="#bc8a00" stroke="#707070" stroke-width="1"/>
    </clipPath>
  </defs>
  <rect id="Avatar_Frame_Background_" data-name="Avatar [Frame Background]" width="58" height="58" rx="29" transform="translate(0 2)" fill="#bc8a00"/>
  <g id="Avatar_Frame_Background_2" data-name="Avatar [Frame Background]" fill="#fff" stroke="#bc8a00" stroke-width="1">
    <rect width="58" height="58" rx="29" stroke="none"/>
    <rect x="0.5" y="0.5" width="57" height="57" rx="28.5" fill="none"/>
  </g>
  <g id="Mask_Group_2" data-name="Mask Group 2" transform="translate(17 17)" clip-path="url(#clip-path)">
    <path id="upload_file_24dp_E8EAED_FILL0_wght300_GRAD0_opsz24" d="M14.211-12.695v4.654a.917.917,0,0,0,.272.675.917.917,0,0,0,.675.272.917.917,0,0,0,.675-.272.917.917,0,0,0,.272-.675v-4.654l1.671,1.671a.942.942,0,0,0,.317.211.822.822,0,0,0,.352.061,1.074,1.074,0,0,0,.348-.08.951.951,0,0,0,.314-.211.99.99,0,0,0,.284-.666.885.885,0,0,0-.284-.666l-3.151-3.151a1.051,1.051,0,0,0-.374-.25,1.213,1.213,0,0,0-.425-.073,1.213,1.213,0,0,0-.425.073,1.051,1.051,0,0,0-.374.25l-3.151,3.151a.891.891,0,0,0-.278.66.938.938,0,0,0,.3.672.99.99,0,0,0,.666.284.884.884,0,0,0,.665-.284ZM7.968-3.158a2.2,2.2,0,0,1-1.62-.663,2.2,2.2,0,0,1-.663-1.62V-24.874a2.2,2.2,0,0,1,.663-1.62,2.2,2.2,0,0,1,1.62-.663h9.087a2.241,2.241,0,0,1,.878.177,2.266,2.266,0,0,1,.732.488l5.3,5.3a2.266,2.266,0,0,1,.488.732,2.241,2.241,0,0,1,.177.878v14.14a2.2,2.2,0,0,1-.663,1.62,2.2,2.2,0,0,1-1.62.663Zm9.085-17.563v-4.542H7.968a.371.371,0,0,0-.267.122.371.371,0,0,0-.122.267V-5.441a.371.371,0,0,0,.122.267.371.371,0,0,0,.267.122h14.38a.371.371,0,0,0,.267-.122.371.371,0,0,0,.122-.267V-19.579H18.195a1.105,1.105,0,0,1-.815-.327A1.105,1.105,0,0,1,17.053-20.721ZM7.579-25.263v0Z" transform="translate(-3.158 27.158)" fill="#bc8a00"/>
  </g>
</svg>
