<svg id="Group_3591" data-name="Group 3591" xmlns="http://www.w3.org/2000/svg" width="35" height="37" viewBox="0 0 35 37">
  <g id="Group_3590" data-name="Group 3590">
    <path id="Oval_10" data-name="Oval 10" d="M0,17.5A17.5,17.5,0,1,1,17.5,35,17.5,17.5,0,0,1,0,17.5Z" transform="translate(0 2)" fill="#bc8a00" fill-rule="evenodd"/>
    <path id="Oval_10-2" data-name="Oval 10" d="M0,17.5A17.5,17.5,0,1,1,17.5,35,17.5,17.5,0,0,1,0,17.5Z" fill="#fafafa" fill-rule="evenodd"/>
    <g id="Icon_Lucide_Icon" data-name="Icon/Lucide Icon" transform="translate(8 7)">
      <rect id="Icon_Lucide_Icon_Frame_Background_" data-name="Icon/Lucide Icon [Frame Background]" width="20" height="20" fill="none"/>
      <path id="Vector" d="M9.167,3.333h-2.5a.833.833,0,0,0-.833.833v2.5H9.167L8.333,10h-2.5v6.667H2.5V10H0V6.667H2.5v-2.5A4.167,4.167,0,0,1,6.667,0h2.5Z" transform="translate(5.833 1.667)" fill="#bc8a00"/>
    </g>
  </g>
</svg>
