<svg id="Group_67491" data-name="Group 67491" xmlns="http://www.w3.org/2000/svg" xmlns:xlink="http://www.w3.org/1999/xlink" width="53" height="54" viewBox="0 0 53 54">
  <defs>
    <clipPath id="clip-path">
      <rect id="Rectangle_12277" data-name="Rectangle 12277" width="32" height="32" transform="translate(10.5 11)" fill="#fafafa"/>
    </clipPath>
  </defs>
  <rect id="Rectangle_12270" data-name="Rectangle 12270" width="53" height="54" rx="24" transform="translate(0 0)" fill="#bc8a00"/>
  <g id="Mask_Group_20" data-name="Mask Group 20" clip-path="url(#clip-path)">
    <path id="group_24dp_E8EAED_FILL1_wght300_GRAD0_opsz24" d="M2.82-10.846a3.85,3.85,0,0,1,.626-2.164A4.265,4.265,0,0,1,5.118-14.49a24.2,24.2,0,0,1,4.5-1.686,19.579,19.579,0,0,1,4.969-.592,19.576,19.576,0,0,1,4.969.592,24.2,24.2,0,0,1,4.5,1.686A4.265,4.265,0,0,1,25.72-13.01a3.85,3.85,0,0,1,.626,2.164v1.1a2.321,2.321,0,0,1-.7,1.665,2.261,2.261,0,0,1-1.688.718H5.2a2.3,2.3,0,0,1-1.687-.7,2.3,2.3,0,0,1-.7-1.688v-1.1ZM28.876-7.359a4.9,4.9,0,0,0,.451-1.149,4.976,4.976,0,0,0,.155-1.234v-1.3a6.107,6.107,0,0,0-.756-2.943,7.127,7.127,0,0,0-2.146-2.4,16.527,16.527,0,0,1,3,.728,20.136,20.136,0,0,1,2.705,1.166,5.585,5.585,0,0,1,1.877,1.529,3.128,3.128,0,0,1,.662,1.922v1.3a2.3,2.3,0,0,1-.7,1.688,2.3,2.3,0,0,1-1.687.7H28.876ZM14.583-19.3a5.285,5.285,0,0,1-3.877-1.612,5.287,5.287,0,0,1-1.612-3.877,5.285,5.285,0,0,1,1.612-3.877,5.285,5.285,0,0,1,3.877-1.613,5.286,5.286,0,0,1,3.877,1.613,5.285,5.285,0,0,1,1.612,3.877,5.287,5.287,0,0,1-1.612,3.877A5.287,5.287,0,0,1,14.583-19.3Zm13.542-5.489a5.287,5.287,0,0,1-1.612,3.877A5.285,5.285,0,0,1,22.636-19.3a4.814,4.814,0,0,1-.676-.06,5.935,5.935,0,0,1-.676-.133,8.323,8.323,0,0,0,1.426-2.475,8.144,8.144,0,0,0,.5-2.823,7.91,7.91,0,0,0-.508-2.812,9.066,9.066,0,0,0-1.416-2.482,2.922,2.922,0,0,1,.676-.157,6.286,6.286,0,0,1,.676-.036,5.285,5.285,0,0,1,3.877,1.613A5.285,5.285,0,0,1,28.125-24.792Z" transform="translate(7.68 45.82)" fill="#e8eaed"/>
  </g>
</svg>
