<svg id="Group_3592" data-name="Group 3592" xmlns="http://www.w3.org/2000/svg" width="35" height="37" viewBox="0 0 35 37">
  <path id="Oval_10_Copy_3" data-name="Oval 10 Copy 3" d="M0,17.5A17.5,17.5,0,1,1,17.5,35,17.5,17.5,0,0,1,0,17.5Z" transform="translate(0 2)" fill="#bc8a00" fill-rule="evenodd"/>
  <path id="Oval_10_Copy_3-2" data-name="Oval 10 Copy 3" d="M0,17.5A17.5,17.5,0,1,1,17.5,35,17.5,17.5,0,0,1,0,17.5Z" fill="#fafafa" fill-rule="evenodd"/>
  <g id="Icon_Lucide_Icon" data-name="Icon/Lucide Icon" transform="translate(8 7)">
    <rect id="Icon_Lucide_Icon_Frame_Border_" data-name="Icon/Lucide Icon [Frame Border]" width="20" height="20" fill="none"/>
    <path id="Vector" d="M5,0a5,5,0,0,1,5,5v5.833H6.667V5A1.667,1.667,0,0,0,3.333,5v5.833H0V5A5,5,0,0,1,5,0Z" transform="translate(8.333 6.667)" fill="#bc8a00"/>
    <path id="Vector-2" data-name="Vector" d="M0,0H3.333V10H0Z" transform="translate(1.667 7.5)" fill="#bc8a00"/>
    <path id="Vector-3" data-name="Vector" d="M3.333,1.667A1.667,1.667,0,1,1,1.667,0,1.667,1.667,0,0,1,3.333,1.667Z" transform="translate(1.667 1.667)" fill="#bc8a00"/>
  </g>
</svg>
