<svg id="Group_67485" data-name="Group 67485" xmlns="http://www.w3.org/2000/svg" xmlns:xlink="http://www.w3.org/1999/xlink" width="672.096" height="239.992" viewBox="0 0 672.096 239.992">
  <defs>
    <filter id="Rectangle_12264" x="-9" y="-6" width="690.096" height="257.992" filterUnits="userSpaceOnUse">
      <feOffset dy="3" input="SourceAlpha"/>
      <feGaussianBlur stdDeviation="3" result="blur"/>
      <feFlood/>
      <feComposite operator="in" in2="blur"/>
      <feComposite in="SourceGraphic"/>
    </filter>
    <clipPath id="clip-path">
      <g transform="matrix(1, 0, 0, 1, 0, 0)" filter="url(#Rectangle_12264)">
        <rect id="Rectangle_12264-2" data-name="Rectangle 12264" width="672.096" height="239.992" fill="#bc8a00"/>
      </g>
    </clipPath>
  </defs>
  <g id="Group_67484" data-name="Group 67484" clip-path="url(#clip-path)">
    <path id="Path_19775" data-name="Path 19775" d="M250.676,310.482c89.427,23.809,175.719,37.841,242.982,39.509,67.07,1.665,107.128-9.117,112.782-30.359,5.3-19.9-20.454-46.265-67.275-73.725.028-.318.055-.636.08-.954,49.243,28.818,73.3,55.162,68.043,74.9-5.388,20.235-40.925,31.177-100.571,31.177q-6.358,0-13.081-.167c-67.33-1.671-153.7-15.712-243.186-39.539S79.045,256.742,19.8,224.712Q9.266,219.018,0,213.438a4.526,4.526,0,0,0,.511-.7c56.676,34.1,146.478,70.137,250.166,97.743" transform="translate(64.098 -111.043)" fill="#bc8a00"/>
    <path id="Path_19776" data-name="Path 19776" d="M1253.368,30.253c4.482-16.832,29.844-27.23,72.574-30.252,0,.139-.008.277-.008.416s.007.3.008.457c-41,2.917-67.232,12.722-71.727,29.6-3.611,13.565,7.213,30.138,29.3,48.014a4.685,4.685,0,0,0-.512.7c-22.93-18.553-33.262-35.32-29.635-48.944" transform="translate(-1252.658 -0.001)" fill="#bc8a00"/>
    <path id="Path_19777" data-name="Path 19777" d="M1249.288,159.909l5.5,1.945a32.54,32.54,0,0,1,19.839,19.839l1.945,5.5,1.945-5.5a32.54,32.54,0,0,1,19.839-19.839l5.5-1.945-5.5-1.945a32.539,32.539,0,0,1-19.839-19.84l-1.945-5.5-1.945,5.5a32.539,32.539,0,0,1-19.839,19.84Z" transform="translate(-1228.971 -69.223)" fill="#bc8a00"/>
  </g>
</svg>
