<svg id="Layer_1" xmlns="http://www.w3.org/2000/svg" width="72" height="52.541" viewBox="0 0 72 52.541">
  <rect id="Layer_1_Frame_Background_" data-name="Layer_1 [Frame Background]" width="72" height="52.541" fill="none"/>
  <g id="Group">
    <path id="Vector" d="M14.152,7.583l-.794-.032a9.275,9.275,0,0,1-1.986,3.7,9.224,9.224,0,0,1-4.595,3.518,32.068,32.068,0,0,1-4.431-1.018Q-.012,13.044,0,12.76c0-.071.163-.1.481-.087l2.945.155a8.628,8.628,0,0,0,2.5-.219,10.871,10.871,0,0,0,3.664-2.122A9.29,9.29,0,0,0,12.353,7.51q-1.009.031-1.344.017Q7.727,7.393,7.845,4.441A5.879,5.879,0,0,1,8.8,1.9Q9.82.14,10.833,0q.55-.066,1.518,1.38A9.226,9.226,0,0,1,13.69,4.608l.582.024-.119,2.952ZM11.525,4.667A2.446,2.446,0,0,0,11.2,3.411q-.41-.79-1.017-.721-.93.009-1.1,1.244a3.121,3.121,0,0,0,1.458.739q.737.17.977-.007Z" transform="translate(0.233 17.659)" fill="#bc8a00"/>
    <path id="Vector-2" data-name="Vector" d="M43.092,21.765a10.968,10.968,0,0,1-2.655-.339,1.889,1.889,0,0,1-1.488-1.682,1.942,1.942,0,0,1,.141-.867q.258-.7.279-.773-.742.005-2.428.15L24.055,19.583a150.969,150.969,0,0,1-19.205.7Q3.227,20.213,0,20.011l.119-2.952q8.345.375,10.681.31,7.786-.218,20.589-1.264,3.387-.272,8.426-.762.043-1.067-1.906-1.841a7,7,0,0,0-2.027-.563q.688.028-9.036.763a139.248,139.248,0,0,1-15.194.512,61.6,61.6,0,0,1-7.365-.567q-2.526-.495-2.464-2.024A6.065,6.065,0,0,1,3.158,9.148a21.126,21.126,0,0,1,3.361-3.6A47.323,47.323,0,0,1,17.326.089,1.515,1.515,0,0,1,17.789,0q.194.008.187.186a2.745,2.745,0,0,1-.388.857q-.424.447-1.021,1.205-1.312.516-5.314,2.509Q8.18,6.449,6.983,7.2A21.532,21.532,0,0,0,3.722,9.634l.124.433q.13.29.863.533a21.724,21.724,0,0,0,3.192.611q6.4.4,10.041.409,4.153.009,8.32-.338,4.4-.408,8.8-.8a14.835,14.835,0,0,1,1.805-.051A7.161,7.161,0,0,1,38.6,10.7q.5.181,1.012.344,3.091,1.355,3.014,3.311a2.747,2.747,0,0,1-.156.8q-.786,2.426-1.874,2.666-.107.032-.411.108-.024.6.958.8l2.064.084-.119,2.952Z" transform="translate(14.386 5.232)" fill="#bc8a00"/>
    <path id="Vector-3" data-name="Vector" d="M3.917,21.793q-.4,3.262-3,3.352l.119-2.952a2.434,2.434,0,0,0,1.275-.287.948.948,0,0,0,.605-.759c-.467-2.762-1.613-11.3-2.3-16.425A3.449,3.449,0,0,0,0,3.307q0-.018.373-1.8Q.682-.013,1.017,0c.082,0,.174.072.274.207a1.223,1.223,0,0,1,.2.587,1.44,1.44,0,0,0,.188.6,2.4,2.4,0,0,0,.658.561A2.169,2.169,0,0,1,2.78,2.3a4.549,4.549,0,0,1-.105.868,11.5,11.5,0,0,1-.694,1.878C2.3,6.827,3.19,13.2,3.52,14.973a28.32,28.32,0,0,1,.5,5.685q-.024.586-.1,1.136Z" transform="translate(56.558 1.852)" fill="#bc8a00"/>
    <path id="Vector-4" data-name="Vector" d="M3.16,23.191A3.927,3.927,0,0,1,2.744,25.2c-.141.279-.27.416-.388.411q-.406-.017-.645-2.876-.247-3.537-.476-7.073C1.139,14.225.418,7.84.21,5.705Q-.015,3.363,0,2.972A5.736,5.736,0,0,1,.636.344C.775.112.88,0,.95,0q.247.01.433,1.995c.026.238.8,7.273,1.176,11.908q.485,5.987.6,9.287Z" transform="translate(63.615 2.012)" fill="#bc8a00"/>
  </g>
  <path id="Vector-5" data-name="Vector" d="M1.6,12.133q.188-1.467.377-2.933l.714-.013a10.082,10.082,0,0,0-.307-1.1,2.235,2.235,0,0,1-.1-1.134,1.587,1.587,0,0,1,.2-.483A7.424,7.424,0,0,1,3.4,5.307c.1-.108.206-.219.318-.335A4.682,4.682,0,0,0,4.687,3.7a1.294,1.294,0,0,1-.118-1.161c.019-.082.041-.163.066-.243A4.367,4.367,0,0,1,5.484.744Q6.225-.14,6.822.027q2.1.6,4.06,4.36,1.358,2.594,1.66,3.355a5.675,5.675,0,0,1,.518,3.343,2.637,2.637,0,0,1-.943,1.455q-.486.461-.953.944a2.263,2.263,0,0,1-1.815.135A10.842,10.842,0,0,1,7.8,13.087q-1.8-.751-1.958-.832c-.053-.028-.475-.264-1.058-.643a7.678,7.678,0,0,1-3.194.519L0,11.957ZM6.855,7.4q.3-1.968-.847-2.247a3.427,3.427,0,0,0-1.1.518c-.09.059-.184.121-.281.189A3.733,3.733,0,0,0,3.582,6.9a1.6,1.6,0,0,0-.192.452,1.056,1.056,0,0,0-.007.486,3.876,3.876,0,0,0,.338.228,6.072,6.072,0,0,0,1.065.507c.183.068.374.131.576.192Q6.747,8.127,6.856,7.4Zm4.3,3.911q.216-.724-1-2.728A15.543,15.543,0,0,0,8.4,6.09,13.8,13.8,0,0,1,7.14,9.8q.042.01,1.745.891a8.747,8.747,0,0,0,1.692.745c.333.081.526.038.581-.126Z" transform="translate(54.973 30.848)" fill="#bc8a00"/>
  <path id="Vector-6" data-name="Vector" d="M1.842.748a2.538,2.538,0,0,0,1.091.771,9.648,9.648,0,0,0,3.163.75c4.251.455,6.635.55,9.059.659q4.149.19,8.327.025,4.413-.216,8.825-.415a14.735,14.735,0,0,1,1.805.028,7.154,7.154,0,0,1,1.726.343q.5.2,1,.388,3.031,1.488,2.868,3.44a2.784,2.784,0,0,1-.189.788q-.89,2.389-1.987,2.582c-.072.018-.21.047-.415.09q-.05.6.922.846l2.059.174-.245,2.944a10.929,10.929,0,0,1-2.638-.455,1.892,1.892,0,0,1-1.415-1.745,1.95,1.95,0,0,1,.178-.86q.288-.69.311-.76-.742-.027-2.432.044l-12.93.764c-7.567.349-8.023.726-13.266.282-1.08-.092-3.883-.393-6.026-.621L2,7.929c5.548.493,10.163.829,11.72.854,5.192.081,6.116-.464,14.673-.789q3.4-.123,8.451-.393.088-1.065-1.824-1.923a5.816,5.816,0,0,0-1.234-.4,5.418,5.418,0,0,0-.687-.092,18.235,18.235,0,0,0-3.388.065c-1.453.028-3.372.073-5.753.148a139.337,139.337,0,0,1-15.2-.151,50.782,50.782,0,0,1-6.38-.7q-2.5-.6-2.375-2.13A6.077,6.077,0,0,1,1.448,0a2.368,2.368,0,0,0,.4.748Z" transform="translate(16.852 28.832)" fill="#bc8a00"/>
  <path id="Vector-7" data-name="Vector" d="M20.86.31,22,3.425c-4.528-.539-5.712-.614-5.721.427a1.474,1.474,0,0,0,1.169,1.435c5.732,1.254,24.784.255,24.784.255s4.951.09,3.468,3.538c-2.475,4.294-21.526,5.21-34.288,4.131C1.511,12.375,0,7.547,0,7.547c16.86,5.391,37.212,1.952,42.086,1a.092.092,0,0,0-.022-.182c-22.882.872-28.672,1.376-29.383-3.3C11.959.315,14.676-.59,20.86.31Z" transform="translate(1.426 36.746)" fill="#bc8a00"/>
  <path id="Vector-8" data-name="Vector" d="M4.347,1.882,2.563,4.474,0,2.647,1.787,0Z" transform="translate(7.689 40.586)" fill="#bc8a00"/>
  <path id="Vector-9" data-name="Vector" d="M4.347,1.882,2.563,4.474,0,2.647,1.787,0Z" transform="translate(48.542 42.347)" fill="#bc8a00"/>
  <path id="Vector-10" data-name="Vector" d="M4.347,1.882,2.563,4.474,0,2.648,1.787,0Z" transform="translate(2.701 39.585)" fill="#bc8a00"/>
  <path id="Vector-11" data-name="Vector" d="M1.684,6.937c-.152.433-.312.552-.858.2C.148,6.7-.365,6.052.333,5.482.861,5.047,23.828.943,25.1.7A31.639,31.639,0,0,1,29.687,0c-.255.719-.719.627-1.568.764C24.562,1.342,5.666,4.8,2.183,5.58L.511,6.094c.709.685.894.551,1.172.842Z" transform="translate(41.878 6.449)" fill="#bc8a00" fill-rule="evenodd"/>
  <path id="Vector-12" data-name="Vector" d="M.473.342C.74.008.675-.012,1.31,0A4.478,4.478,0,0,1,2.334.155c.3.074.647.106.656.449.008.424-.732,1.15-.975,1.288a3.7,3.7,0,0,1-1.784.343C.3,2.047.17,2.185.412,2.063l.72-.322a6.023,6.023,0,0,0,.9-.453C1.751,1,.473,1.039,0,1.064A2.67,2.67,0,0,1,.473.342Z" transform="translate(34.496 27.7)" fill="#bc8a00" fill-rule="evenodd"/>
  <path id="Vector-13" data-name="Vector" d="M.734,1.036C.645.751,1,.435,1.139.29c.74-.783,1.595.119.884,1.51a13.664,13.664,0,0,1-.9,1.44C.936,3.515.305,4.35,0,4.447.07,3.967,2.063,2.112,1.731.984a.374.374,0,0,0-.5-.267c-.214.078-.284.23-.5.319Z" transform="translate(56.451 28.625)" fill="#bc8a00" fill-rule="evenodd"/>
  <path id="Vector-14" data-name="Vector" d="M6.564.007c-.05.885-2.286,1.181-3.117,1.38A24.12,24.12,0,0,1,0,2.024C.616.48,6.349-.072,6.564.007Z" transform="translate(40.523 50.281)" fill="#bc8a00" fill-rule="evenodd"/>
  <path id="Vector-15" data-name="Vector" d="M3.825,4.828C3.974,3.69,4.379-1.6,6.5.48c.565.547.5,1.03.107,1.75C6.041,1.779,5.008,0,4.5,4L3.89,6.889c-.565-.355-1-2.136-1.406-2.78-.607-.934-.863-.623-1.139-.676A4.314,4.314,0,0,1,.056,2.713a3.259,3.259,0,0,1,.1-1.589c2.183-.451,2.993,3.166,3.674,3.7Z" transform="translate(12.176 1.461)" fill="#bc8a00" fill-rule="evenodd"/>
  <path id="Vector-16" data-name="Vector" d="M1.85,7.139c.048.083.021-.055.089.221A1.867,1.867,0,0,1,1.72,8.646c-.4.482-.84.082-1.052-.282-.963-1.659,1-3.6.151-6.01C.374,1.074-.39,1.212.238,0c.9.5,1.4,3.311,1.141,4.674A13.142,13.142,0,0,0,.8,7c-.021.475-.035.985.43,1.005.567.02.41-.544.622-.868Z" transform="translate(1.518 15.406)" fill="#bc8a00" fill-rule="evenodd"/>
  <path id="Vector-17" data-name="Vector" d="M.592,1.291c-.587,1.092.489,1.172,1.133.636C1.762.854,1.069.387.592,1.291Zm.526,1.741C-.8,3.38.1.418,1.205.044,2.523-.4,2.783,2.726,1.118,3.032Z" transform="translate(30.033 10.731)" fill="#bc8a00" fill-rule="evenodd"/>
  <path id="Vector-18" data-name="Vector" d="M9.994,3.969l-.081-.063c-.613.162-1.349.505-1.993.717-3.224,1.06-3.893.835-6.783.324.056.511.136,1.01-.235,1.266a4.382,4.382,0,0,0-.31-1.59C.043,3.664-.131,4.169.1,3.314c.57.381.644.954,2.179,1.229a12.9,12.9,0,0,0,6.938-1.11c.2-.075.39-.143.588-.212.173-.062.476-.168.594-.025.3.355-.779,2.258-1.139,2.432.087-.848.613-1,.736-1.659ZM4.623,1.694C4.3,1.195,3.287.159,3.955,0c.328-.075,1.028,1.1,1.188,1.566.216.579.346,2-.167,2.245C4.828,3.533,5.4,2.873,4.623,1.694Z" transform="translate(35.99 0.235)" fill="#bc8a00" fill-rule="evenodd"/>
  <path id="Vector-19" data-name="Vector" d="M1.508,4.46C1.149,5.536-.061,5.061,0,3.42a14.31,14.31,0,0,1,.22-1.771A4.661,4.661,0,0,1,.76,0C.9.486-.174,3.141.639,4.066a.39.39,0,0,0,.59.031c.169-.17.168-.346.336-.528.21.232.013.69-.056.891Z" transform="translate(12.651 30.675)" fill="#bc8a00" fill-rule="evenodd"/>
</svg>
