<svg xmlns="http://www.w3.org/2000/svg" xmlns:xlink="http://www.w3.org/1999/xlink" width="32" height="32" viewBox="0 0 32 32">
  <defs>
    <clipPath id="clip-path">
      <rect id="Rectangle_12276" data-name="Rectangle 12276" width="32" height="32" transform="translate(10.5 11)" fill="#fafafa"/>
    </clipPath>
  </defs>
  <g id="Mask_Group_21" data-name="Mask Group 21" transform="translate(-10.5 -11)" clip-path="url(#clip-path)">
    <path id="workspace_premium_24dp_E8EAED_FILL1_wght300_GRAD0_opsz24" d="M19.79-20.119,17.1-18.039a.351.351,0,0,1-.455.013.345.345,0,0,1-.141-.419l1.025-3.368L14.8-23.9a.357.357,0,0,1-.115-.427.343.343,0,0,1,.347-.252H18.4L19.425-27.9a.347.347,0,0,1,.365-.257.347.347,0,0,1,.365.257l1.024,3.317h3.346a.364.364,0,0,1,.36.252.342.342,0,0,1-.1.427l-2.753,2.087,1.024,3.368a.345.345,0,0,1-.141.419.351.351,0,0,1-.455-.013Zm0,14.316L12.667-3.549a1.358,1.358,0,0,1-1.338-.2,1.427,1.427,0,0,1-.609-1.2v-9.774a11.792,11.792,0,0,1-2.432-3.784,12.135,12.135,0,0,1-.866-4.583,11.936,11.936,0,0,1,3.6-8.772,11.936,11.936,0,0,1,8.772-3.6,11.936,11.936,0,0,1,8.772,3.6,11.936,11.936,0,0,1,3.6,8.772,12.135,12.135,0,0,1-.866,4.583,11.792,11.792,0,0,1-2.432,3.784v9.774a1.427,1.427,0,0,1-.609,1.2,1.358,1.358,0,0,1-1.338.2L19.79-5.8Zm0-7.389A9.542,9.542,0,0,0,26.8-16.079a9.542,9.542,0,0,0,2.886-7.009A9.542,9.542,0,0,0,26.8-30.1a9.542,9.542,0,0,0-7.009-2.886A9.542,9.542,0,0,0,12.781-30.1a9.542,9.542,0,0,0-2.886,7.009,9.542,9.542,0,0,0,2.886,7.009A9.542,9.542,0,0,0,19.79-13.193Z" transform="translate(6.711 46.456)" fill="#e8eaed"/>
  </g>
</svg>
