<svg xmlns="http://www.w3.org/2000/svg" xmlns:xlink="http://www.w3.org/1999/xlink" width="24" height="24" viewBox="0 0 24 24">
  <defs>
    <clipPath id="clip-path">
      <rect id="Rectangle_3" data-name="Rectangle 3" width="24" height="24" fill="#bc8a00" stroke="#707070" stroke-width="1"/>
    </clipPath>
  </defs>
  <g id="Mask_Group_1" data-name="Mask Group 1" clip-path="url(#clip-path)">
    <path id="verified_user_24dp_E8EAED_FILL0_wght300_GRAD0_opsz24" d="M14.052-14.032l-2.043-2.044a.941.941,0,0,0-.67-.292.918.918,0,0,0-.682.292.944.944,0,0,0-.3.686.944.944,0,0,0,.3.686l2.584,2.6a1.113,1.113,0,0,0,.812.348,1.113,1.113,0,0,0,.812-.348l5.318-5.318a.952.952,0,0,0,.292-.68.929.929,0,0,0-.292-.692.944.944,0,0,0-.686-.3.943.943,0,0,0-.686.3ZM15.4-3.374a2.383,2.383,0,0,1-.392-.032,2.177,2.177,0,0,1-.373-.1,12.566,12.566,0,0,1-6.46-5.119,14.238,14.238,0,0,1-2.4-7.933v-5.78A2.194,2.194,0,0,1,6.2-23.648a2.411,2.411,0,0,1,1.086-.85l7.3-2.727a2.389,2.389,0,0,1,.812-.148,2.389,2.389,0,0,1,.812.148l7.3,2.727a2.411,2.411,0,0,1,1.086.85,2.194,2.194,0,0,1,.422,1.314v5.78a14.238,14.238,0,0,1-2.4,7.933A12.566,12.566,0,0,1,16.165-3.5a2.177,2.177,0,0,1-.373.1,2.383,2.383,0,0,1-.392.032Zm0-1.888A10.443,10.443,0,0,0,20.918-9.5,12.189,12.189,0,0,0,23.1-16.555v-5.792a.383.383,0,0,0-.068-.222.408.408,0,0,0-.191-.148l-7.3-2.727a.361.361,0,0,0-.136-.025.361.361,0,0,0-.136.025l-7.3,2.727a.408.408,0,0,0-.191.148.383.383,0,0,0-.068.222v5.792A12.189,12.189,0,0,0,9.881-9.5,10.443,10.443,0,0,0,15.4-5.262ZM15.4-15.375Z" transform="translate(-3.4 27.374)" fill="#bc8a00"/>
  </g>
</svg>
